<svg width="29" height="29" viewBox="0 0 29 29" fill="none" xmlns="http://www.w3.org/2000/svg">
<path d="M13.4791 27.347C12.988 27.1441 12.5489 26.7037 11.6694 25.8255C10.7899 24.9446 10.3495 24.5055 10.148 24.0156C10.0138 23.6917 9.9447 23.3445 9.9447 22.9939C9.9447 22.6433 10.0138 22.2961 10.148 21.9722C10.3495 21.4811 10.7886 21.0419 11.6694 20.1624C12.5476 19.2828 12.988 18.8424 13.4791 18.6408C14.1329 18.3702 14.8673 18.3702 15.5211 18.6408C16.0122 18.8424 16.4513 19.2815 17.3308 20.1624C18.2103 21.0433 18.6494 21.4811 18.8522 21.9722C19.1229 22.626 19.1229 23.3605 18.8522 24.0143C18.6494 24.5055 18.2116 24.9446 17.3308 25.8241C16.4499 26.7037 16.0122 27.1441 15.5211 27.347C14.8673 27.6177 14.1329 27.6177 13.4791 27.347ZM4.98437 18.8531C4.49457 18.6502 4.05416 18.2111 3.17599 17.3315C2.29515 16.4506 1.85607 16.0115 1.65321 15.5217C1.51902 15.1978 1.44995 14.8506 1.44995 14.5C1.44995 14.1494 1.51902 13.8022 1.65321 13.4783C1.85607 12.9871 2.29648 12.548 3.17465 11.6685C4.05549 10.7889 4.49457 10.3498 4.98437 10.1469C5.30827 10.0127 5.65542 9.94365 6.00601 9.94365C6.3566 9.94365 6.70376 10.0127 7.02765 10.1469C7.51878 10.3498 7.95787 10.7889 8.83737 11.6685C9.71687 12.548 10.156 12.9871 10.3588 13.4783C10.6295 14.1321 10.6295 14.8666 10.3588 15.5204C10.156 16.0115 9.71821 16.452 8.83737 17.3315C7.95653 18.2111 7.51878 18.6502 7.02765 18.8531C6.37391 19.1237 5.63812 19.1237 4.98437 18.8531ZM20.1628 17.3315C19.2833 16.4506 18.8442 16.0115 18.6414 15.5217C18.5072 15.1978 18.4381 14.8506 18.4381 14.5C18.4381 14.1494 18.5072 13.8022 18.6414 13.4783C18.8442 12.9871 19.2833 12.548 20.1628 11.6685C21.0423 10.7889 21.4827 10.3498 21.9725 10.1469C22.6263 9.87626 23.3607 9.87626 24.0145 10.1469C24.5056 10.3498 24.946 10.7889 25.8255 11.6685C26.705 12.548 27.1428 12.9871 27.347 13.4783C27.6176 14.1321 27.6176 14.8666 27.347 15.5204C27.1428 16.0115 26.705 16.452 25.8255 17.3315C24.9447 18.2111 24.5056 18.6502 24.0158 18.8531C23.6919 18.9873 23.3448 19.0563 22.9942 19.0563C22.6436 19.0563 22.2964 18.9873 21.9725 18.8531C21.4827 18.6502 21.0423 18.2111 20.1628 17.3315ZM13.4791 10.3591C12.988 10.1563 12.5489 9.71581 11.6694 8.83759C10.7899 7.9567 10.3495 7.51758 10.148 7.02642C9.87731 6.37263 9.87731 5.63814 10.148 4.98435C10.3495 4.49319 10.7886 4.05408 11.6694 3.17452C12.5476 2.29496 12.988 1.85452 13.4791 1.65298C14.1329 1.38232 14.8673 1.38232 15.5211 1.65298C16.0122 1.85452 16.4513 2.29363 17.3308 3.17452C18.2103 4.05541 18.6494 4.49319 18.8522 4.98435C19.1232 5.63835 19.1232 6.37242 18.8522 7.02642C18.6494 7.51758 18.2116 7.95803 17.3308 8.83625C16.4513 9.71715 16.0122 10.1563 15.5211 10.3591C14.8673 10.6298 14.1329 10.6298 13.4791 10.3591Z" stroke="white" stroke-width="2.9" stroke-linecap="round" stroke-linejoin="round"/>
</svg>
