<svg width="31" height="31" viewBox="0 0 31 31" fill="none" xmlns="http://www.w3.org/2000/svg">
<rect width="31" height="31" rx="8.525" transform="matrix(1 0 0 -1 0 31)" fill="url(#paint0_linear_2_4)"/>
<path d="M14.9545 22.8415C14.692 22.7331 14.4573 22.4977 13.9873 22.0283C13.5172 21.5575 13.2818 21.3228 13.1741 21.061C13.1024 20.8878 13.0654 20.7023 13.0654 20.5149C13.0654 20.3275 13.1024 20.1419 13.1741 19.9688C13.2818 19.7063 13.5165 19.4716 13.9873 19.0015C14.4566 18.5314 14.692 18.2959 14.9545 18.1882C15.3039 18.0436 15.6965 18.0436 16.0459 18.1882C16.3084 18.2959 16.5431 18.5306 17.0132 19.0015C17.4833 19.4723 17.7179 19.7063 17.8264 19.9688C17.971 20.3182 17.971 20.7108 17.8264 21.0602C17.7179 21.3228 17.484 21.5575 17.0132 22.0276C16.5424 22.4977 16.3084 22.7331 16.0459 22.8415C15.6965 22.9862 15.3039 22.9862 14.9545 22.8415ZM10.4142 18.3017C10.1524 18.1932 9.91705 17.9585 9.44768 17.4884C8.97689 17.0176 8.74221 16.7829 8.63378 16.5211C8.56206 16.348 8.52515 16.1624 8.52515 15.975C8.52515 15.7876 8.56206 15.6021 8.63378 15.4289C8.74221 15.1664 8.9776 14.9317 9.44697 14.4616C9.91776 13.9915 10.1524 13.7568 10.4142 13.6484C10.5873 13.5766 10.7729 13.5397 10.9603 13.5397C11.1477 13.5397 11.3332 13.5766 11.5063 13.6484C11.7688 13.7568 12.0035 13.9915 12.4736 14.4616C12.9437 14.9317 13.1784 15.1664 13.2868 15.4289C13.4314 15.7784 13.4314 16.1709 13.2868 16.5204C13.1784 16.7829 12.9444 17.0183 12.4736 17.4884C12.0028 17.9585 11.7688 18.1932 11.5063 18.3017C11.1569 18.4463 10.7636 18.4463 10.4142 18.3017ZM18.5268 17.4884C18.0568 17.0176 17.8221 16.7829 17.7137 16.5211C17.6419 16.348 17.605 16.1624 17.605 15.975C17.605 15.7876 17.6419 15.6021 17.7137 15.4289C17.8221 15.1664 18.0568 14.9317 18.5268 14.4616C18.9969 13.9915 19.2323 13.7568 19.4941 13.6484C19.8435 13.5037 20.2361 13.5037 20.5855 13.6484C20.848 13.7568 21.0834 13.9915 21.5535 14.4616C22.0236 14.9317 22.2575 15.1664 22.3667 15.4289C22.5113 15.7784 22.5113 16.1709 22.3667 16.5204C22.2575 16.7829 22.0236 17.0183 21.5535 17.4884C21.0827 17.9585 20.848 18.1932 20.5862 18.3017C20.4131 18.3734 20.2275 18.4103 20.0402 18.4103C19.8528 18.4103 19.6672 18.3734 19.4941 18.3017C19.2323 18.1932 18.9969 17.9585 18.5268 17.4884ZM14.9545 13.7618C14.692 13.6534 14.4573 13.418 13.9873 12.9486C13.5172 12.4777 13.2818 12.243 13.1741 11.9805C13.0294 11.6311 13.0294 11.2385 13.1741 10.8891C13.2818 10.6265 13.5165 10.3919 13.9873 9.92174C14.4566 9.45163 14.692 9.21622 14.9545 9.10851C15.3039 8.96385 15.6965 8.96385 16.0459 9.10851C16.3084 9.21622 16.5431 9.45092 17.0132 9.92174C17.4833 10.3926 17.7179 10.6265 17.8264 10.8891C17.9712 11.2386 17.9712 11.631 17.8264 11.9805C17.7179 12.243 17.484 12.4784 17.0132 12.9478C16.5431 13.4187 16.3084 13.6534 16.0459 13.7618C15.6965 13.9065 15.3039 13.9065 14.9545 13.7618Z" stroke="white" stroke-width="1.55" stroke-linecap="round" stroke-linejoin="round"/>
<defs>
<linearGradient id="paint0_linear_2_4" x1="24.212" y1="-1.0638e-06" x2="6.78799" y2="31" gradientUnits="userSpaceOnUse">
<stop stop-color="#4880FF"/>
<stop offset="1" stop-color="#3159B3"/>
</linearGradient>
</defs>
</svg>
