<svg width="36" height="36" viewBox="0 0 36 36" fill="none" xmlns="http://www.w3.org/2000/svg">
<path fill-rule="evenodd" clip-rule="evenodd" d="M12.591 3.02025C12.237 3.73125 11.7675 4.758 11.454 5.79525C8.71426 5.95125 6.73051 6.19125 5.34526 6.42C3.20701 6.7725 1.77151 8.5125 1.56976 10.5675C1.35822 12.7721 1.22364 14.9835 1.16626 17.1975C3.30657 17.8912 5.45864 18.548 7.62151 19.1677C9.57901 19.728 11.6655 20.2837 13.533 20.6985C15.4275 21.12 17.0093 21.375 18 21.375C18.99 21.375 20.5725 21.12 22.467 20.6985C24.3345 20.2837 26.4203 19.728 28.3785 19.1685C30.5411 18.5487 32.6929 17.8919 34.833 17.1982C34.7765 14.9837 34.6422 12.7718 34.4303 10.5667C34.2278 8.51175 32.793 6.77175 30.6548 6.41925C29.2695 6.19125 27.2858 5.95125 24.546 5.79525C24.2325 4.758 23.763 3.73125 23.409 3.02025C22.8615 1.92075 21.8175 1.092 20.5193 0.91425C19.875 0.825 19.0223 0.75 18 0.75C16.9778 0.75 16.125 0.82575 15.48 0.91425C14.1825 1.092 13.1385 1.92075 12.591 3.02025ZM18 3.75C17.1255 3.75 16.41 3.81525 15.8873 3.8865C15.6518 3.91875 15.4185 4.07175 15.276 4.35825C15.081 4.74975 14.871 5.202 14.6828 5.6655C15.7078 5.6385 16.8135 5.625 18 5.625C19.187 5.626 20.2928 5.6395 21.3173 5.6655C21.1298 5.202 20.9198 4.7505 20.724 4.35825C20.5815 4.07175 20.3483 3.91875 20.1128 3.8865C19.4124 3.79366 18.7065 3.74806 18 3.75Z" fill="white"/>
<path d="M34.8728 19.5488L34.1587 19.776C32.8162 20.1998 30.9787 20.766 28.9965 21.3315C27.0165 21.897 24.8843 22.4663 22.9553 22.8953C21.0525 23.3175 19.2593 23.625 18 23.625C16.7407 23.625 14.9475 23.3175 13.0447 22.8953C11.1157 22.4663 8.98275 21.8978 7.0035 21.3315C5.03572 20.7677 3.07674 20.1736 1.12725 19.5495C1.12575 19.78 1.125 20.0135 1.125 20.25C1.125 24.4718 1.3605 27.8033 1.56975 29.9325C1.77225 31.9875 3.207 33.7275 5.34525 34.08C7.65525 34.461 11.631 34.875 18 34.875C24.369 34.875 28.3448 34.461 30.6548 34.08C32.793 33.7275 34.2285 31.9875 34.4303 29.9325C34.6403 27.8033 34.875 24.4718 34.875 20.25C34.875 20.0135 34.8743 19.7798 34.8728 19.5488Z" fill="white"/>
</svg>
