<svg width="30" height="30" viewBox="0 0 30 30" fill="none" xmlns="http://www.w3.org/2000/svg">
<path d="M27.5003 15.777V18.352C27.5003 19.052 26.9253 19.627 26.2128 19.627H23.8003C22.4503 19.627 21.2128 18.6395 21.1003 17.2895C21.0253 16.502 21.3253 15.7645 21.8503 15.252C22.3128 14.777 22.9503 14.502 23.6503 14.502H26.2128C26.9253 14.502 27.5003 15.077 27.5003 15.777Z" fill="white"/>
<path d="M19.225 17.448C19.1125 16.1355 19.5875 14.848 20.5375 13.9105C21.3375 13.098 22.45 12.623 23.65 12.623H24.3625C24.7125 12.623 25 12.3355 24.95 11.9855C24.6125 9.56055 22.5125 7.68555 20 7.68555H7.5C4.7375 7.68555 2.5 9.92305 2.5 12.6855V21.4355C2.5 24.198 4.7375 26.4355 7.5 26.4355H20C22.525 26.4355 24.6125 24.5605 24.95 22.1355C25 21.7855 24.7125 21.498 24.3625 21.498H23.8C21.425 21.498 19.425 19.723 19.225 17.448ZM16.25 14.873H8.75C8.2375 14.873 7.8125 14.4605 7.8125 13.9355C7.8125 13.4105 8.2375 12.998 8.75 12.998H16.25C16.7625 12.998 17.1875 13.423 17.1875 13.9355C17.1875 14.448 16.7625 14.873 16.25 14.873Z" fill="white"/>
<path d="M17.7632 4.97695C18.0882 5.31445 17.8008 5.81445 17.3258 5.81445H7.5383C6.1758 5.81445 4.9008 6.21445 3.8383 6.90195C3.3508 7.21445 2.6883 6.87695 2.9258 6.33945C3.6258 4.70195 5.2633 3.56445 7.1508 3.56445H14.1758C15.6257 3.56445 16.9132 4.07695 17.7632 4.97695Z" fill="white"/>
</svg>
